<svg xmlns="http://www.w3.org/2000/svg" viewBox="0 0 256 256" role="img" aria-label="çµæŠQR">
  <rect width="256" height="256" fill="#ffffff"/>
  <rect x="8" y="8" width="68" height="68" fill="#0f172a"/>
  <rect x="20" y="20" width="44" height="44" fill="#ffffff"/>
  <rect x="32" y="32" width="20" height="20" fill="#0f172a"/>
  <rect x="180" y="8" width="68" height="68" fill="#0f172a"/>
  <rect x="192" y="20" width="44" height="44" fill="#ffffff"/>
  <rect x="204" y="32" width="20" height="20" fill="#0f172a"/>
  <rect x="8" y="180" width="68" height="68" fill="#0f172a"/>
  <rect x="20" y="192" width="44" height="44" fill="#ffffff"/>
  <rect x="32" y="204" width="20" height="20" fill="#0f172a"/>
  <g fill="#0f172a">
    <rect x="96" y="12" width="12" height="12"/><rect x="120" y="12" width="12" height="12"/><rect x="144" y="12" width="12" height="12"/>
    <rect x="108" y="24" width="12" height="12"/><rect x="132" y="24" width="12" height="12"/><rect x="156" y="24" width="12" height="12"/>
    <rect x="96" y="36" width="12" height="12"/><rect x="120" y="48" width="12" height="12"/><rect x="144" y="36" width="12" height="12"/>
    <rect x="96" y="72" width="12" height="12"/><rect x="108" y="84" width="12" height="12"/><rect x="132" y="72" width="12" height="12"/>
    <rect x="156" y="84" width="12" height="12"/><rect x="96" y="96" width="12" height="12"/><rect x="120" y="108" width="12" height="12"/>
    <rect x="144" y="96" width="12" height="12"/><rect x="168" y="108" width="12" height="12"/><rect x="180" y="96" width="12" height="12"/>
    <rect x="96" y="120" width="12" height="12"/><rect x="108" y="132" width="12" height="12"/><rect x="132" y="144" width="12" height="12"/>
    <rect x="156" y="132" width="12" height="12"/><rect x="180" y="144" width="12" height="12"/><rect x="204" y="120" width="12" height="12"/>
    <rect x="96" y="156" width="12" height="12"/><rect x="120" y="168" width="12" height="12"/><rect x="144" y="156" width="12" height="12"/>
    <rect x="168" y="168" width="12" height="12"/><rect x="192" y="156" width="12" height="12"/><rect x="216" y="168" width="12" height="12"/>
    <rect x="96" y="180" width="12" height="12"/><rect x="108" y="204" width="12" height="12"/><rect x="132" y="192" width="12" height="12"/>
    <rect x="156" y="216" width="12" height="12"/><rect x="180" y="204" width="12" height="12"/><rect x="204" y="192" width="12" height="12"/>
    <rect x="228" y="204" width="12" height="12"/><rect x="96" y="228" width="12" height="12"/><rect x="120" y="216" width="12" height="12"/>
    <rect x="144" y="228" width="12" height="12"/><rect x="168" y="228" width="12" height="12"/><rect x="204" y="228" width="12" height="12"/>
    <rect x="228" y="228" width="12" height="12"/>
  </g>
</svg>
